<?xml version="1.0" encoding="utf-8"?>
<!-- Generator: Adobe Illustrator 25.4.1, SVG Export Plug-In . SVG Version: 6.00 Build 0)  -->
<svg version="1.1" id="Layer_1" xmlns="http://www.w3.org/2000/svg" xmlns:xlink="http://www.w3.org/1999/xlink" x="0px" y="0px"
	 viewBox="0 0 260.7 104.4" style="enable-background:new 0 0 260.7 104.4;" xml:space="preserve">
<style type="text/css">
	.st0{fill:#262262;}
	.st1{fill:#1C75BC;}
</style>
<g>
	<path class="st0" d="M60.1,41.3c1.1,0.4,2.3,1.1,3.4,2L62.9,44c-1.1-0.8-2.2-1.5-3.1-1.8c-1-0.4-2.1-0.6-3.5-0.6
		c-1.9,0-3.4,0.5-4.6,1.4c-1.2,0.9-1.8,2.2-1.8,3.7c0,1.4,0.5,2.5,1.5,3.3c1,0.8,2.7,1.5,5.2,2.2c1.9,0.5,3.4,1.1,4.5,1.7
		c1.1,0.6,1.9,1.3,2.4,2.2c0.5,0.9,0.7,2,0.7,3.3c0,2-0.7,3.7-2.2,4.9c-1.5,1.3-3.4,1.9-5.8,1.9c-1.8,0-3.3-0.3-4.6-0.8
		c-1.3-0.5-2.5-1.3-3.7-2.3l0.6-0.7c1.2,1,2.3,1.7,3.5,2.1c1.2,0.5,2.5,0.7,4.2,0.7c2,0,3.7-0.5,5-1.5c1.3-1,1.9-2.4,1.9-4.3
		c0-1.2-0.2-2.2-0.6-2.9c-0.4-0.7-1.1-1.4-2.1-1.9c-1-0.5-2.4-1-4.3-1.5c-2.6-0.7-4.5-1.5-5.6-2.5c-1.1-0.9-1.7-2.2-1.7-3.9
		c0-1.8,0.7-3.2,2.2-4.3c1.4-1.1,3.2-1.7,5.3-1.7C57.7,40.7,59,40.9,60.1,41.3z"/>
	<path class="st0" d="M85.4,63.9c0.3,0.7,0.9,1.2,1.7,1.5l-0.3,0.8c-1-0.3-1.7-0.8-2.1-1.5c-0.4-0.7-0.7-1.8-0.7-3.2
		c-1.8,3.2-4.5,4.8-8,4.8c-2.3,0-4.1-0.7-5.4-2c-1.3-1.3-2-3.1-2-5.3c0-2.5,0.9-4.4,2.6-5.7c1.7-1.4,4.1-2,7-2h5.6v-2.9
		c0-2.2-0.5-3.9-1.4-4.9c-1-1.1-2.6-1.6-4.8-1.6c-2,0-4.2,0.5-6.8,1.6l-0.3-0.9c2.6-1.1,4.9-1.6,7.1-1.6c2.6,0,4.4,0.6,5.6,1.9
		c1.2,1.2,1.7,3.1,1.7,5.6v12.4C85,62.1,85.1,63.2,85.4,63.9z M80.7,63.9c1.3-0.9,2.3-2.1,3.2-3.8v-8h-5.4c-2.7,0-4.9,0.6-6.4,1.7
		c-1.5,1.2-2.3,2.9-2.3,5.1c0,2,0.6,3.5,1.7,4.6c1.1,1.1,2.6,1.7,4.6,1.7C77.9,65.2,79.5,64.7,80.7,63.9z"/>
	<path class="st0" d="M109.9,54.1H92.7c0.1,3.7,1,6.4,2.5,8.3c1.6,1.9,3.6,2.8,6.2,2.8c1.4,0,2.6-0.2,3.7-0.6
		c1.1-0.4,2.1-1.1,3.3-2.1l0.6,0.8c-1.1,0.9-2.3,1.7-3.5,2.2c-1.2,0.5-2.5,0.7-4,0.7c-3,0-5.4-1.1-7.1-3.3c-1.8-2.2-2.6-5.3-2.6-9.2
		c0-2.6,0.4-4.9,1.2-6.9c0.8-2,1.9-3.4,3.3-4.5c1.4-1,3.1-1.6,5-1.6c2.9,0,5.2,1,6.7,3.1c1.5,2.1,2.3,4.9,2.3,8.5
		C109.9,52.8,109.9,53.4,109.9,54.1z M108.9,51.9c0-3.1-0.7-5.6-2-7.5c-1.3-1.9-3.3-2.8-5.8-2.8c-2.5,0-4.5,1-6,3
		c-1.5,2-2.3,4.8-2.4,8.6h16.2V51.9z"/>
	<path class="st0" d="M128.3,64.7c-1.5,0.9-3.1,1.4-4.8,1.4c-1.7,0-3-0.5-3.9-1.5c-0.9-1-1.4-2.5-1.4-4.5v-18h-4.1v-0.9h4.1V35
		l1-0.1v6.3h6.8l-0.2,0.9h-6.6v18c0,1.7,0.4,2.9,1.1,3.8c0.7,0.9,1.8,1.3,3.3,1.3c1.4,0,2.9-0.4,4.2-1.2L128.3,64.7z"/>
	<path class="st0" d="M144.8,64.7c-1.5,0.9-3.1,1.4-4.8,1.4c-1.7,0-3-0.5-3.9-1.5c-0.9-1-1.4-2.5-1.4-4.5v-18h-4.1v-0.9h4.1V35
		l1-0.1v6.3h6.8l-0.2,0.9h-6.6v18c0,1.7,0.4,2.9,1.1,3.8c0.7,0.9,1.8,1.3,3.3,1.3c1.4,0,2.9-0.4,4.2-1.2L144.8,64.7z"/>
	<path class="st0" d="M164.4,63.9c0.3,0.7,0.9,1.2,1.7,1.5l-0.3,0.8c-1-0.3-1.7-0.8-2.1-1.5c-0.4-0.7-0.7-1.8-0.7-3.2
		c-1.8,3.2-4.5,4.8-8,4.8c-2.3,0-4.1-0.7-5.4-2c-1.3-1.3-2-3.1-2-5.3c0-2.5,0.9-4.4,2.6-5.7c1.7-1.4,4.1-2,7-2h5.6v-2.9
		c0-2.2-0.5-3.9-1.4-4.9c-1-1.1-2.6-1.6-4.8-1.6c-2,0-4.2,0.5-6.8,1.6l-0.3-0.9c2.6-1.1,4.9-1.6,7.1-1.6c2.6,0,4.4,0.6,5.6,1.9
		c1.2,1.2,1.7,3.1,1.7,5.6v12.4C163.9,62.1,164,63.2,164.4,63.9z M159.7,63.9c1.3-0.9,2.3-2.1,3.2-3.8v-8h-5.4
		c-2.7,0-4.9,0.6-6.4,1.7c-1.5,1.2-2.3,2.9-2.3,5.1c0,2,0.6,3.5,1.7,4.6c1.1,1.1,2.6,1.7,4.6,1.7C156.8,65.2,158.4,64.7,159.7,63.9z
		"/>
	<path class="st0" d="M188.5,65.2c-0.6-0.6-0.9-1.6-0.9-2.9V31.1l1-0.1v31.3c0,2,0.8,2.9,2.4,2.9c0.7,0,1.3-0.1,1.9-0.4l0.3,0.9
		c-0.8,0.3-1.6,0.5-2.2,0.5C189.9,66.2,189.1,65.8,188.5,65.2z"/>
	<path class="st0" d="M214.7,63.9c0.3,0.7,0.9,1.2,1.7,1.5l-0.3,0.8c-1-0.3-1.7-0.8-2.1-1.5c-0.4-0.7-0.7-1.8-0.7-3.2
		c-1.8,3.2-4.5,4.8-8,4.8c-2.3,0-4.1-0.7-5.4-2c-1.3-1.3-2-3.1-2-5.3c0-2.5,0.9-4.4,2.6-5.7c1.7-1.4,4.1-2,7-2h5.6v-2.9
		c0-2.2-0.5-3.9-1.4-4.9c-1-1.1-2.6-1.6-4.8-1.6c-2,0-4.2,0.5-6.8,1.6l-0.3-0.9c2.6-1.1,4.9-1.6,7.1-1.6c2.6,0,4.4,0.6,5.6,1.9
		c1.2,1.2,1.7,3.1,1.7,5.6v12.4C214.2,62.1,214.3,63.2,214.7,63.9z M210,63.9c1.3-0.9,2.3-2.1,3.2-3.8v-8h-5.4
		c-2.7,0-4.9,0.6-6.4,1.7c-1.5,1.2-2.3,2.9-2.3,5.1c0,2,0.6,3.5,1.7,4.6c1.1,1.1,2.6,1.7,4.6,1.7C207.2,65.2,208.7,64.7,210,63.9z"
		/>
	<path class="st0" d="M238.4,43.9c1.5,2.2,2.2,5.3,2.2,9.3c0,4.1-0.8,7.2-2.3,9.5c-1.5,2.3-3.7,3.4-6.6,3.4c-1.7,0-3.2-0.4-4.4-1.2
		c-1.3-0.8-2.4-1.8-3.3-3.1l-0.1,3.8H223V31.1l1-0.1v14.2c2.1-2.9,4.8-4.4,7.9-4.4C234.7,40.7,236.9,41.8,238.4,43.9z M237.5,62
		c1.4-2.1,2.1-5,2.1-8.8c0-3.8-0.6-6.7-1.9-8.6c-1.3-2-3.2-3-5.7-3c-1.7,0-3.2,0.4-4.4,1.2c-1.2,0.8-2.4,2-3.5,3.5v14.4
		c2,3,4.6,4.5,7.6,4.5C234.2,65.2,236.1,64.1,237.5,62z"/>
	<path class="st0" d="M256.6,41.3c1.1,0.4,2.3,1.1,3.4,2l-0.6,0.8c-1.1-0.8-2.2-1.5-3.1-1.8c-1-0.4-2.1-0.6-3.5-0.6
		c-1.9,0-3.4,0.5-4.6,1.4c-1.2,0.9-1.8,2.2-1.8,3.7c0,1.4,0.5,2.5,1.5,3.3c1,0.8,2.7,1.5,5.2,2.2c1.9,0.5,3.4,1.1,4.5,1.7
		c1.1,0.6,1.9,1.3,2.4,2.2c0.5,0.9,0.7,2,0.7,3.3c0,2-0.7,3.7-2.2,4.9c-1.5,1.3-3.4,1.9-5.8,1.9c-1.8,0-3.3-0.3-4.6-0.8
		c-1.3-0.5-2.5-1.3-3.7-2.3l0.6-0.7c1.2,1,2.3,1.7,3.5,2.1c1.2,0.5,2.5,0.7,4.2,0.7c2,0,3.7-0.5,5-1.5c1.3-1,1.9-2.4,1.9-4.3
		c0-1.2-0.2-2.2-0.6-2.9c-0.4-0.7-1.1-1.4-2.1-1.9c-1-0.5-2.4-1-4.3-1.5c-2.6-0.7-4.5-1.5-5.6-2.5c-1.1-0.9-1.7-2.2-1.7-3.9
		c0-1.8,0.7-3.2,2.2-4.3c1.4-1.1,3.2-1.7,5.3-1.7C254.2,40.7,255.5,40.9,256.6,41.3z"/>
</g>
<g>
	<path class="st0" d="M61.8,104.4c0,0-33.6-4.4-42.9-12.8c0,0,0,7.8,5.5,12.2C24.4,103.8,24.4,100.6,61.8,104.4z"/>
	<path class="st1" d="M61,0C30.3,2.7,6.4,24.1,6.4,50c0,27.8,27.4,50.3,61.2,50.3c0.1,0,0.2,0,0.2,0c-2.2,0.2-4.4,0.3-6.6,0.3
		C27.4,100.6,0,78.1,0,50.3C0,22.6,27.3,0.1,61,0z"/>
</g>
</svg>
