<svg xmlns="http://www.w3.org/2000/svg" style="display: none;">
  <symbol id="logo" viewBox="0 0 260.7 104.4">
    <path d="M60.1 41.3c1.1.4 2.3 1.1 3.4 2l-.6.7c-1.1-.8-2.2-1.5-3.1-1.8-1-.4-2.1-.6-3.5-.6-1.9 0-3.4.5-4.6 1.4-1.2.9-1.8 2.2-1.8 3.7 0 1.4.5 2.5 1.5 3.3 1 .8 2.7 1.5 5.2 2.2 1.9.5 3.4 1.1 4.5 1.7 1.1.6 1.9 1.3 2.4 2.2.5.9.7 2 .7 3.3 0 2-.7 3.7-2.2 4.9-1.5 1.3-3.4 1.9-5.8 1.9-1.8 0-3.3-.3-4.6-.8-1.3-.5-2.5-1.3-3.7-2.3l.6-.7c1.2 1 2.3 1.7 3.5 2.1 1.2.5 2.5.7 4.2.7 2 0 3.7-.5 5-1.5 1.3-1 1.9-2.4 1.9-4.3 0-1.2-.2-2.2-.6-2.9-.4-.7-1.1-1.4-2.1-1.9s-2.4-1-4.3-1.5c-2.6-.7-4.5-1.5-5.6-2.5-1.1-.9-1.7-2.2-1.7-3.9 0-1.8.7-3.2 2.2-4.3 1.4-1.1 3.2-1.7 5.3-1.7 1.4 0 2.7.2 3.8.6z" class="st0"/>
    <path d="M85.4 63.9c.3.7.9 1.2 1.7 1.5l-.3.8c-1-.3-1.7-.8-2.1-1.5-.4-.7-.7-1.8-.7-3.2-1.8 3.2-4.5 4.8-8 4.8-2.3 0-4.1-.7-5.4-2-1.3-1.3-2-3.1-2-5.3 0-2.5.9-4.4 2.6-5.7 1.7-1.4 4.1-2 7-2h5.6v-2.9c0-2.2-.5-3.9-1.4-4.9-1-1.1-2.6-1.6-4.8-1.6-2 0-4.2.5-6.8 1.6l-.3-.9c2.6-1.1 4.9-1.6 7.1-1.6 2.6 0 4.4.6 5.6 1.9 1.2 1.2 1.7 3.1 1.7 5.6v12.4c.1 1.2.2 2.3.5 3zm-4.7 0c1.3-.9 2.3-2.1 3.2-3.8v-8h-5.4c-2.7 0-4.9.6-6.4 1.7-1.5 1.2-2.3 2.9-2.3 5.1 0 2 .6 3.5 1.7 4.6 1.1 1.1 2.6 1.7 4.6 1.7 1.8 0 3.4-.5 4.6-1.3z" class="st0"/>
    <path d="M109.9 54.1H92.7c.1 3.7 1 6.4 2.5 8.3 1.6 1.9 3.6 2.8 6.2 2.8 1.4 0 2.6-.2 3.7-.6 1.1-.4 2.1-1.1 3.3-2.1l.6.8c-1.1.9-2.3 1.7-3.5 2.2-1.2.5-2.5.7-4 .7-3 0-5.4-1.1-7.1-3.3-1.8-2.2-2.6-5.3-2.6-9.2 0-2.6.4-4.9 1.2-6.9.8-2 1.9-3.4 3.3-4.5 1.4-1 3.1-1.6 5-1.6 2.9 0 5.2 1 6.7 3.1s2.3 4.9 2.3 8.5c-.4.5-.4 1.1-.4 1.8zm-1-2.2c0-3.1-.7-5.6-2-7.5-1.3-1.9-3.3-2.8-5.8-2.8s-4.5 1-6 3-2.3 4.8-2.4 8.6h16.2v-1.3z" class="st0"/>
    <path d="M128.3 64.7c-1.5.9-3.1 1.4-4.8 1.4-1.7 0-3-.5-3.9-1.5-.9-1-1.4-2.5-1.4-4.5v-18h-4.1v-.9h4.1V35l1-.1v6.3h6.8l-.2.9h-6.6v18c0 1.7.4 2.9 1.1 3.8.7.9 1.8 1.3 3.3 1.3 1.4 0 2.9-.4 4.2-1.2l.5.7z" class="st0"/>
    <path d="M144.8 64.7c-1.5.9-3.1 1.4-4.8 1.4-1.7 0-3-.5-3.9-1.5-.9-1-1.4-2.5-1.4-4.5v-18h-4.1v-.9h4.1V35l1-.1v6.3h6.8l-.2.9h-6.6v18c0 1.7.4 2.9 1.1 3.8.7.9 1.8 1.3 3.3 1.3 1.4 0 2.9-.4 4.2-1.2l.5.7z" class="st0"/>
    <path d="M164.4 63.9c.3.7.9 1.2 1.7 1.5l-.3.8c-1-.3-1.7-.8-2.1-1.5-.4-.7-.7-1.8-.7-3.2-1.8 3.2-4.5 4.8-8 4.8-2.3 0-4.1-.7-5.4-2-1.3-1.3-2-3.1-2-5.3 0-2.5.9-4.4 2.6-5.7 1.7-1.4 4.1-2 7-2h5.6v-2.9c0-2.2-.5-3.9-1.4-4.9-1-1.1-2.6-1.6-4.8-1.6-2 0-4.2.5-6.8 1.6l-.3-.9c2.6-1.1 4.9-1.6 7.1-1.6 2.6 0 4.4.6 5.6 1.9 1.2 1.2 1.7 3.1 1.7 5.6v12.4c0 1.2.1 2.3.5 3zm-4.7 0c1.3-.9 2.3-2.1 3.2-3.8v-8h-5.4c-2.7 0-4.9.6-6.4 1.7-1.5 1.2-2.3 2.9-2.3 5.1 0 2 .6 3.5 1.7 4.6 1.1 1.1 2.6 1.7 4.6 1.7 1.7 0 3.3-.5 4.6-1.3z" class="st0"/>
    <path d="M188.5 65.2c-.6-.6-.9-1.6-.9-2.9V31.1l1-.1v31.3c0 2 .8 2.9 2.4 2.9.7 0 1.3-.1 1.9-.4l.3.9c-.8.3-1.6.5-2.2.5-1.1 0-1.9-.4-2.5-1z" class="st0"/>
    <path d="M214.7 63.9c.3.7.9 1.2 1.7 1.5l-.3.8c-1-.3-1.7-.8-2.1-1.5-.4-.7-.7-1.8-.7-3.2-1.8 3.2-4.5 4.8-8 4.8-2.3 0-4.1-.7-5.4-2-1.3-1.3-2-3.1-2-5.3 0-2.5.9-4.4 2.6-5.7 1.7-1.4 4.1-2 7-2h5.6v-2.9c0-2.2-.5-3.9-1.4-4.9-1-1.1-2.6-1.6-4.8-1.6-2 0-4.2.5-6.8 1.6l-.3-.9c2.6-1.1 4.9-1.6 7.1-1.6 2.6 0 4.4.6 5.6 1.9 1.2 1.2 1.7 3.1 1.7 5.6v12.4c0 1.2.1 2.3.5 3zm-4.7 0c1.3-.9 2.3-2.1 3.2-3.8v-8h-5.4c-2.7 0-4.9.6-6.4 1.7-1.5 1.2-2.3 2.9-2.3 5.1 0 2 .6 3.5 1.7 4.6 1.1 1.1 2.6 1.7 4.6 1.7 1.8 0 3.3-.5 4.6-1.3z" class="st0"/>
    <path d="M238.4 43.9c1.5 2.2 2.2 5.3 2.2 9.3 0 4.1-.8 7.2-2.3 9.5-1.5 2.3-3.7 3.4-6.6 3.4-1.7 0-3.2-.4-4.4-1.2-1.3-.8-2.4-1.8-3.3-3.1l-.1 3.8h-.9V31.1l1-.1v14.2c2.1-2.9 4.8-4.4 7.9-4.4 2.8-.1 5 1 6.5 3.1zm-.9 18.1c1.4-2.1 2.1-5 2.1-8.8 0-3.8-.6-6.7-1.9-8.6-1.3-2-3.2-3-5.7-3-1.7 0-3.2.4-4.4 1.2-1.2.8-2.4 2-3.5 3.5v14.4c2 3 4.6 4.5 7.6 4.5 2.5 0 4.4-1.1 5.8-3.2z" class="st0"/>
    <path d="M256.6 41.3c1.1.4 2.3 1.1 3.4 2l-.6.8c-1.1-.8-2.2-1.5-3.1-1.8-1-.4-2.1-.6-3.5-.6-1.9 0-3.4.5-4.6 1.4-1.2.9-1.8 2.2-1.8 3.7 0 1.4.5 2.5 1.5 3.3 1 .8 2.7 1.5 5.2 2.2 1.9.5 3.4 1.1 4.5 1.7 1.1.6 1.9 1.3 2.4 2.2.5.9.7 2 .7 3.3 0 2-.7 3.7-2.2 4.9-1.5 1.3-3.4 1.9-5.8 1.9-1.8 0-3.3-.3-4.6-.8-1.3-.5-2.5-1.3-3.7-2.3l.6-.7c1.2 1 2.3 1.7 3.5 2.1 1.2.5 2.5.7 4.2.7 2 0 3.7-.5 5-1.5 1.3-1 1.9-2.4 1.9-4.3 0-1.2-.2-2.2-.6-2.9-.4-.7-1.1-1.4-2.1-1.9s-2.4-1-4.3-1.5c-2.6-.7-4.5-1.5-5.6-2.5-1.1-.9-1.7-2.2-1.7-3.9 0-1.8.7-3.2 2.2-4.3 1.4-1.1 3.2-1.7 5.3-1.7 1.4-.1 2.7.1 3.8.5z" class="st0"/>
    <path d="M61.8 104.4S28.2 100 18.9 91.6c0 0 0 7.8 5.5 12.2 0 0 0-3.2 37.4.6z" class="st0"/>
    <path fill="#1c75bc" d="M61 0C30.3 2.7 6.4 24.1 6.4 50c0 27.8 27.4 50.3 61.2 50.3h.2c-2.2.2-4.4.3-6.6.3C27.4 100.6 0 78.1 0 50.3 0 22.6 27.3.1 61 0z"/>
  </symbol>
</svg>